# xmcd
#
# Track frame offsets:
#	150
#	7190
#	18792
#	32822
#	44632
#	55027
#	65850
#	73287
#	81627
#	91277
#	100025
#	112842
#	121225
#	136932
#	144897
#	159622
#	168872
#	177652
#
# Disc length: 2520 seconds
# Revision: 2
# Processed by: cddbd v1.5.2PL0 Copyright (c) Steve Scherf et al.
# Submitted via: dBpowerAMP V12.0
#
DISCID=f909d612
DTITLE=Jim Reeves - According to My Heart
DYEAR=2001
DGENRE=Country
TTITLE0=Have I Told You Lately That I Love You
TTITLE1=Just Call Me Lonesome
TTITLE2=How's the World Treating You?
TTITLE3=If Heartaches Are the Fashion
TTITLE4=Home
TTITLE5=Dear Hearts and Gentle People
TTITLE6=I'm Beginning to Forget You
TTITLE7=Roly Poly
TTITLE8=Wind Up Doll
TTITLE9=Sweet Evening Breeze
TTITLE10=Your Old Love Letters
TTITLE11=Till the End of the World
TTITLE12=Making Believe
TTITLE13=The Oklahoma Hills
TTITLE14=The Highway to Nowhere
TTITLE15=If You Were Mine
TTITLE16=Everywhere You Go
TTITLE17=I Love You More
EXTD=
EXTT0=
EXTT1=
EXTT2=
EXTT3=
EXTT4=
EXTT5=
EXTT6=
EXTT7=
EXTT8=
EXTT9=
EXTT10=
EXTT11=
EXTT12=
EXTT13=
EXTT14=
EXTT15=
EXTT16=
EXTT17=
PLAYORDER=
